 <svg width="32" height="32" viewBox="0 0 32 32">
    <path
      className="symbolFill"
      d="M.094 29.156q.031-.281.094-.531t.156-.469.203-.406.266-.375q.125-.094.297-.219t.422-.25.563-.266.656-.297q.813-.344 1.453-.656t1.078-.594q.469-.313.906-.703t.875-.859q.375-.375.625-.672t.344-.516q.125-.25.297-.828t.391-1.453q.156-.594.297-1.094t.234-.906q.125-.406.234-.734t.203-.578q.469-1.156 1.031-2.156t1.25-1.813q.688-.844 1.5-1.484t1.75-1.109q.469-.219.984-.422t1.078-.359q.594-.156 1.234-.297t1.328-.266q.5-.094.828-.172t.484-.109q.188-.063.328-.141t.234-.172.172-.219.141-.25q.063-.156.078-.313t-.016-.313q0-.156-.031-.375t-.125-.5q-.063-.313-.156-.656t-.25-.75q-.125-.438-.234-.813t-.203-.688q-.063-.313-.094-.578t-.063-.453v-.813q.031-.156.063-.281t.094-.188q.031-.063.078-.094t.078-.063q.063-.031.109-.031h.109l.172.031.234.094.344.141q.188.078.406.203.5.25.891.406t.672.219.563.047.563-.078q.156-.063.313-.156t.344-.219q.219-.125.422-.313t.422-.406q.156-.188.297-.313t.234-.219q.125-.094.203-.156t.109-.063q.094-.063.188-.078t.188-.016.188.016.156.078q.156.031.266.141t.141.266q.063.156.125.469t.125.781q.031.281.078.594t.078.625q.063.313.109.656t.109.688q.063.25.094.469t.031.406v.109l-.031.109q-.031.156-.141.344t-.328.406q-.313.344-.484.672t-.234.641-.016.75.172 1l.125.5.094.5q.063.25.078.5t.016.5q0 .5-.078.891t-.234.703q-.125.313-.438.734t-.813.953q-.156.188-.313.344t-.281.313l-.188.25-.156.219q-.313.438-.563.984t-.438 1.172q-.156.594-.234 1.281t-.078 1.469q0 .75.094 1.375t.25 1.125q.188.469.5.953t.781.984q.156.125.266.25t.172.219.109.156.047.094q.063.125.094.234t.031.234-.047.25-.109.25-.125.219-.156.156-.188.078-.219.016q-.375.031-.844-.234t-1.031-.797q-.531-.531-.938-1.094T23 23.841q-.031-.094-.063-.219l-.063-.25q-.031-.156-.047-.313t-.047-.313q0-.25-.031-.453t-.094-.359q-.031-.156-.094-.266t-.125-.172q-.063-.125-.172-.203t-.266-.141q-.125-.063-.281-.078t-.344-.016q-.094-.031-.188-.031t-.188.031q-.063 0-.141.031t-.141.094q-.188.094-.422.328t-.516.609-.531.813-.5.906q-.125.281-.234.5t-.172.375-.078.234-.016.109h.219q.094 0 .234.016t.297.047q.531.031.875.094t.5.188q.188.125.281.391t.094.641q0 .063.016.172t.016.234h-5.25q-.656 0-1.953.016t-3.266.016q-.031-.031-.094-.078t-.156-.141q-.281-.219-.563-.344t-.563-.125-.672.094-.891.281-.984.375-.922.344q-.438.188-.813.344t-.719.281q-.313.156-.594.328t-.531.359q-.25.219-.406.391t-.219.328q-.063.188-.063.375t.063.375q.094.219.266.469t.453.531q.156.156.266.281t.172.188q.094.094.125.156l.031.063q0 .094-.063.141t-.219.078h-.188q-.094 0-.219-.016t-.25-.047q-.063 0-.156-.031t-.188-.094q-.094-.031-.203-.078t-.266-.141q-.438-.219-.766-.469t-.547-.563q-.156-.25-.25-.547t-.094-.641v-.188z"
    />
    <path
      className="symbolOutline"
      d="M.094 29.156q.031-.281.094-.531t.156-.469.203-.406.266-.375q.125-.094.297-.219t.422-.25.563-.266.656-.297q.813-.344 1.453-.656t1.078-.594q.469-.313.906-.703t.875-.859q.375-.375.625-.672t.344-.516q.125-.25.297-.828t.391-1.453q.156-.594.297-1.094t.234-.906q.125-.406.234-.734t.203-.578q.469-1.156 1.031-2.156t1.25-1.813q.688-.844 1.5-1.484t1.75-1.109q.469-.219.984-.422t1.078-.359q.594-.156 1.234-.297t1.328-.266q.5-.094.828-.172t.484-.109q.188-.063.328-.141t.234-.172.172-.219.141-.25q.063-.156.078-.313t-.016-.313q0-.156-.031-.375t-.125-.5q-.063-.313-.156-.656t-.25-.75q-.125-.438-.234-.813t-.203-.688q-.063-.313-.094-.578t-.063-.453v-.813q.031-.156.063-.281t.094-.188q.031-.063.078-.094t.078-.063q.063-.031.109-.031h.109l.172.031.234.094.344.141q.188.078.406.203.5.25.891.406t.672.219.563.047.563-.078q.156-.063.313-.156t.344-.219q.219-.125.422-.313t.422-.406q.156-.188.297-.313t.234-.219q.125-.094.203-.156t.109-.063q.094-.063.188-.078t.188-.016.188.016.156.078q.156.031.266.141t.141.266q.063.156.125.469t.125.781q.031.281.078.594t.078.625q.063.313.109.656t.109.688q.063.25.094.469t.031.406v.109l-.031.109q-.031.156-.141.344t-.328.406q-.313.344-.484.672t-.234.641-.016.75.172 1l.125.5.094.5q.063.25.078.5t.016.5q0 .5-.078.891t-.234.703q-.125.313-.438.734t-.813.953q-.156.188-.313.344t-.281.313l-.188.25-.156.219q-.313.438-.563.984t-.438 1.172q-.156.594-.234 1.281t-.078 1.469q0 .75.094 1.375t.25 1.125q.188.469.5.953t.781.984q.156.125.266.25t.172.219.109.156.047.094q.063.125.094.234t.031.234-.047.25-.109.25-.125.219-.156.156-.188.078-.219.016q-.375.031-.844-.234t-1.031-.797q-.531-.531-.938-1.094T23 23.841q-.031-.094-.063-.219l-.063-.25q-.031-.156-.047-.313t-.047-.313q0-.25-.031-.453t-.094-.359q-.031-.156-.094-.266t-.125-.172q-.063-.125-.172-.203t-.266-.141q-.125-.063-.281-.078t-.344-.016q-.094-.031-.188-.031t-.188.031q-.063 0-.141.031t-.141.094q-.188.094-.422.328t-.516.609-.531.813-.5.906q-.125.281-.234.5t-.172.375-.078.234-.016.109h.219q.094 0 .234.016t.297.047q.5.031.828.094t.484.156q.188.094.297.297t.141.516h.031q0 .031-.016.031h-.016v.219q0 .063.016.156t.016.25h-.625v.016q0 .016-.031.016v-.031h.031q.094-.063.234-.219t.359-.406v-.031h-.656v.281q0 .063.016.156t.016.219h-4.594q-.656 0-1.953.016t-3.266.016q-.031-.031-.094-.078t-.156-.141q-.281-.219-.563-.344t-.563-.125-.672.094-.891.281-.984.375-.922.344q-.438.188-.813.344t-.719.281q-.313.156-.594.328t-.531.359q-.25.219-.406.391t-.219.328q-.063.188-.063.375t.063.375q.094.219.266.469t.453.531q.156.156.266.281t.172.188q.094.094.125.156l.031.063q0 .063-.047.109t-.141.078q-.063.031-.172.047t-.266-.016l.031.031h-.016l-.047-.031h-.063l-.063-.031h-.078l-.078-.031q-.063 0-.156-.031t-.188-.094q-.094-.031-.203-.078t-.266-.141q-.438-.219-.766-.469t-.547-.563q-.156-.25-.25-.547t-.094-.641v-.188zm.625.125v.063q0 .25.078.469t.234.406q.156.219.391.406t.547.344q-.125-.156-.219-.328t-.156-.328T1.5 30l-.063-.313.016-.016q.016-.016.016-.047v-.094q0-.031.016-.094t.016-.125q.031-.031.047-.094t.016-.125q.031-.031.047-.078t.047-.109q.031-.031.047-.078t.047-.109q.156-.188.344-.359T2.502 28q.25-.156.547-.328t.641-.359q.281-.125.641-.266t.797-.328q.438-.156.938-.359t1.063-.422q.281-.094.531-.156t.469-.125.406-.094.344-.031q.219 0 .438.047t.406.109q.219.094.406.203t.344.266l.063.063h1.875l3.125-.031h4.563q0-.094-.031-.172t-.094-.109q-.031-.031-.109-.047l-.234-.047h-.25q-.094 0-.188-.016t-.219-.047q-.5-.031-.797-.094t-.391-.156-.141-.219-.047-.25q0-.031.016-.047t.016-.047v-.094q.031-.094.078-.203t.109-.266q.063-.188.156-.391t.219-.453q.281-.531.563-.984t.563-.859q.313-.406.578-.672t.484-.391q.063-.031.094-.063t.063-.031.063-.031h.031q.063-.031.125-.047t.125-.016q.063-.031.141-.031h.547l.125.031h.125l.094.031q.156.031.297.078t.266.141q.125.063.234.156t.203.25q.063.063.125.141t.094.172q.063.094.094.188t.063.219q.031.063.047.141t.047.203q.031.094.047.234t.016.297q.031.125.047.266t.016.266q.031.094.063.203t.063.203q.188.469.5.938t.75.906.797.703.641.328h.188q.031 0 .047-.031l.047-.094v-.031q.031 0 .031-.016v-.047l.016-.031q.016-.031.016-.063v-.219l-.031-.047q-.031-.047-.094-.109t-.156-.172-.219-.234q-.5-.531-.859-1.063t-.578-1.063q-.188-.563-.297-1.25t-.109-1.5.094-1.563.281-1.406.438-1.234.594-1.078q.063-.094.172-.219t.234-.25q.125-.156.281-.328t.344-.391q.469-.5.75-.859t.375-.609q.125-.25.188-.594t.063-.781q0-.219-.016-.453t-.047-.453q-.031-.25-.094-.484t-.125-.453q-.031-.25-.078-.453t-.078-.359q-.031-.188-.047-.359t-.016-.297q0-.313.063-.594t.156-.531q.125-.25.297-.516t.391-.516l.25-.25.031-.063q.031-.031.047-.078t.016-.078q.031-.031.031-.063v-.188l-.031-.156q0-.094-.016-.203t-.047-.234q-.063-.375-.125-.719t-.125-.656q-.063-.344-.109-.656t-.078-.594q-.031-.25-.047-.453t-.047-.328q-.031-.156-.063-.25t-.063-.125h-.031V.626h-.078q-.016 0-.016.031h-.094q-.031.031-.094.078T27.7.876q-.063.094-.172.203t-.266.234q-.25.25-.484.453t-.453.359-.438.281-.406.188q-.094 0-.188.016t-.188.047q-.094 0-.188.016t-.188.016q-.219 0-.469-.047t-.563-.141q-.281-.094-.625-.25t-.719-.344q-.125-.094-.25-.141t-.25-.078q-.094-.063-.156-.094t-.125-.031v.156q0 .031-.016.078t-.016.109l.016.031q.016.031.016.094v.25q.031.188.078.422l.109.547.172.672.234.766q.156.438.25.797t.156.672q.094.313.125.563t.031.438v.375q0 .094-.016.172t-.047.172-.078.203-.109.234q-.031.094-.109.188t-.172.188q-.031.063-.094.109t-.156.109-.156.109-.188.078l-.234.078-.359.109q-.188.031-.453.078t-.578.109q-.688.094-1.313.234t-1.188.328q-.563.156-1.047.344t-.891.406q-.875.438-1.656 1.031t-1.438 1.375-1.188 1.734-.938 2.078q-.094.219-.203.547t-.234.734-.25.891-.281 1.078q-.219.906-.406 1.5t-.344.875q-.125.25-.375.594t-.656.781q-.5.531-1 .938t-1 .719q-.469.313-1.109.641t-1.453.641q-.313.156-.594.281t-.531.219q-.219.125-.375.234t-.25.203q-.094.125-.188.266t-.156.297-.094.344-.063.406v.063l-.031.031zM2.906 32zM21.438 1.531h.109l.016.031v-.063q0-.031.016-.047l.016-.016-.047.031-.109.063z"
    />
  </svg>