<svg width="32" height="32" viewBox="0 0 32 32">
    <path
      className="symbolFill"
      d="M0 20.125q0-2.313 1.203-4.203t3.109-2.828q-.094-.406-.141-.844t-.047-.844q0-3.188 2.203-5.438t5.328-2.25q2.031 0 3.75 1.031t2.688 2.688q.531-.219 1.109-.328T20.405 7q2.563 0 4.406 1.875t1.844 4.5q0 .344-.031.688t-.094.656q2.313.375 3.891 2.219t1.578 4.313q0 2.719-1.891 4.656t-4.516 1.969v.094H7.029v-.031q-2.938-.25-4.984-2.5t-2.047-5.313z"
    />
    <path
      className="symbolOutline"
      d="M0 20.125q0-2.313 1.203-4.203t3.109-2.828q-.094-.406-.141-.844t-.047-.844q0-3.188 2.203-5.438t5.328-2.25q2.031 0 3.75 1.031t2.688 2.688q.531-.219 1.109-.328T20.405 7q2.563 0 4.406 1.875t1.844 4.5q0 .344-.031.688t-.094.656q2.313.375 3.891 2.219t1.578 4.313q0 2.719-1.891 4.656t-4.516 1.969v.094H7.029v-.031q-2.938-.25-4.984-2.5t-2.047-5.313zm1.25 0q0 1.25.438 2.406t1.281 2.094q.813.875 1.891 1.422t2.266.641l.281.031h16.938v-.063l1.219-.031q1.031 0 1.984-.406t1.672-1.156q.75-.781 1.141-1.75t.391-2.063q0-.969-.328-1.875t-.953-1.625q-.594-.719-1.422-1.188t-1.734-.625l-1.281-.188.25-1.281q.063-.281.094-.547t.031-.547q0-1.031-.391-1.969T23.94 9.749q-.719-.75-1.641-1.125t-1.891-.375q-.5 0-.953.078t-.891.266l-1 .406-.531-.938q-.438-.688-1-1.266t-1.25-.984q-.719-.406-1.516-.625t-1.609-.219q-1.25 0-2.406.484T7.221 6.842q-.438.438-.781.953t-.563 1.078q-.25.594-.375 1.234t-.125 1.297q0 .344.031.703t.125.703l.219.969-.875.406q-.813.406-1.469 1.016t-1.156 1.391-.75 1.688-.25 1.844z"
    />
  </svg>