<svg width="32" height="32" viewBox="0 0 32 32">
    <path
      className="symbolFill"
      d="M0 7.688q0-.656.234-1.234t.703-1.047 1.031-.703 1.219-.234 1.234.234 1.047.703.703 1.047.234 1.234q0 .281-.047.547t-.141.516-.234.5-.359.469q.563.625 1.406 1.547t1.938 2.172q.219-.906.625-2.688t1-4.469q-.5-.188-.906-.484t-.719-.703q-.313-.438-.484-.906t-.172-1q0-.656.234-1.219T9.249.939q.5-.469 1.063-.703t1.219-.234 1.219.234 1.031.703.703 1.031.234 1.219q0 .406-.094.797t-.313.766q-.219.344-.484.641t-.609.516q.469 1.188 1.172 3t1.609 4.219q.344-.906 1.047-2.719t1.734-4.5q-.313-.219-.594-.516t-.5-.641q-.188-.375-.297-.766t-.109-.797q0-.656.234-1.219t.703-1.031 1.031-.703 1.219-.234 1.234.234 1.047.703.703 1.031.234 1.219q0 .531-.156 1t-.5.906q-.313.406-.719.703t-.906.484q.281 1.188.688 2.969t.938 4.188q.438-.469 1.266-1.406t2.078-2.313q-.188-.219-.344-.469t-.25-.5-.141-.516-.047-.547q0-.656.234-1.234t.703-1.047q.5-.469 1.063-.703t1.219-.234 1.219.234 1.031.703.703 1.047.234 1.234q0 .625-.219 1.172t-.688 1.016q-.438.469-.969.719t-1.188.281q-.594 1.688-1.516 4.25t-2.141 6H6.714q-.438-1.281-1.359-3.844t-2.297-6.406q-.625-.031-1.172-.281t-.984-.719T.23 8.86t-.234-1.172zM6.719 27.5v-4.469h18.563V27.5H6.719z"
    />
    <path
      className="symbolOutline"
      d="M0 7.688q0-.656.234-1.234t.703-1.047 1.031-.703 1.219-.234 1.234.234 1.047.703.703 1.047.234 1.234q0 .281-.047.547t-.141.516-.234.5-.359.469q.563.625 1.406 1.547t1.938 2.172q.219-.906.625-2.688t1-4.469q-.5-.188-.906-.484t-.719-.703q-.313-.438-.484-.906t-.172-1q0-.656.234-1.219T9.249.939q.5-.469 1.063-.703t1.219-.234 1.219.234 1.031.703.703 1.031.234 1.219q0 .406-.094.797t-.313.766q-.219.344-.484.641t-.609.516q.469 1.188 1.172 3t1.609 4.219q.344-.906 1.047-2.719t1.734-4.5q-.313-.219-.594-.516t-.5-.641q-.188-.375-.297-.766t-.109-.797q0-.656.234-1.219t.703-1.031 1.031-.703 1.219-.234 1.234.234 1.047.703.703 1.031.234 1.219q0 .531-.156 1t-.5.906q-.313.406-.719.703t-.906.484q.281 1.188.688 2.969t.938 4.188q.438-.469 1.266-1.406t2.078-2.313q-.188-.219-.344-.469t-.25-.5-.141-.516-.047-.547q0-.656.234-1.234t.703-1.047q.5-.469 1.063-.703t1.219-.234 1.219.234 1.031.703.703 1.047.234 1.234q0 .625-.219 1.172t-.688 1.016q-.438.469-.969.719t-1.188.281q-.594 1.688-1.516 4.25t-2.141 6H6.714q-.438-1.281-1.359-3.844t-2.297-6.406q-.625-.031-1.172-.281t-.984-.719T.23 8.86t-.234-1.172zm1.281 0q0 .375.141.703T1.813 9q.281.281.594.422t.688.172h.375l.5.031.016.016q.016.016.016.047.094-.094.266-.297t.422-.484q.125-.156.203-.297t.109-.266q.063-.156.094-.328t.031-.328q0-.406-.141-.75t-.422-.625-.625-.422-.75-.141q-.375 0-.719.141t-.625.422-.422.625-.141.75zM3.969 9.75q.031 0 .047.031l.047.094q0-.031-.016-.078T4 9.688v.016q0 .016-.031.047zm.094.125q.438 1.25 1.328 3.734t2.234 6.234h16.75q.469-1.25 1.359-3.75t2.203-6.219q-.688.781-2.094 2.344t-3.5 3.906l-.844-3.75-1.438-6.25q-.5 1.313-1.516 3.953t-2.547 6.578q-.5-1.313-1.516-3.953t-2.547-6.578l-.844 3.75-1.438 6.25q-.688-.781-2.094-2.344t-3.5-3.906zM6.719 27.5v-4.469h18.563V27.5H6.719zM8 26.219h16v-1.906H8v1.906zM9.594 3.188q0 .313.094.609t.281.547q.219.25.453.422t.516.266q.125.031.328.094t.516.156l.281-.188.469-.281q.25-.156.422-.328t.266-.359q.125-.219.172-.453t.047-.484q0-.406-.141-.734t-.422-.609-.609-.422-.734-.141-.75.141-.625.422-.422.609-.141.734zm2.062 2.187q.031.094.109.281t.172.469q.031-.094.063-.281t.094-.469q-.031-.031-.109-.047t-.203-.047l-.031.031-.094.063zm6.907-2.187q0 .25.063.484t.156.453q.125.188.297.359t.391.328q.094.063.281.172t.469.297q.125-.031.328-.094t.516-.156q.281-.094.531-.266t.438-.422.281-.547.094-.609q0-.406-.141-.734t-.422-.609-.625-.422-.75-.141q-.375 0-.719.141t-.625.422-.422.609-.141.734zm1.343 2.187q.031.094.063.281t.094.469q.031-.094.109-.281t.172-.469q0-.031-.031-.047l-.094-.047q-.031 0-.109.031t-.203.063zm6.969 2.313q0 .156.031.328t.094.328q.063.125.141.266t.172.297q.125.125.297.328t.391.453l.016-.016q.016-.016.016-.047.125 0 .344-.016t.531-.016q.375-.031.703-.172t.578-.422q.281-.281.406-.609t.125-.703q0-.406-.141-.75t-.422-.625-.609-.422-.734-.141-.75.141-.625.422-.422.625-.141.75zm1.063 2.187q.031-.031.047-.063t.047-.063v-.016q0-.016-.031-.047 0 .031-.016.078t-.047.109z"
    />
  </svg>