<svg width="32" height="32" viewBox="0 0 32 32">
    <path
      className="symbolFill"
      d="M2.969 29.047q-.063-.203-.063-.438 0-.641.5-1.484.156-.25.594-.438t.938.063.531.766-.156.766q-.313.406.156.625t.844 0q.656-.344 1.172-.625t1.109-.906q-.344-1.063-.344-2.719v-.281q.031-1.844 1.438-4 1.813-2.781 4.75-5.953t3.75-3.953q.063-.219.125-.453t.125-.453q.281-.969.5-1.906t.219-1.563q0-.906.203-2.141t.359-2.141l.125-.672q.062-.328.063-.391 0-.375.266-.625t.609-.25q.125 0 .422.125t.516.688q.063.125.125.344t.125.5q.094.375.375 1.234t.563.891h.031q.906.156 1.453.422t.984.516q.219.156.422.266t.422.203q.688.25 2 .563t1.344.313l.313.063-.031.313q0 .031-.063.828t-.219 1.359q-.156.688-1.125.922t-2 .328q-.094 0-.172.016t-.141.016q-.844.094-1.219.297t-.688.859l-.094.188q-.25.594-.328.813t-.172.688q1.016 1.656 1.016 3.469v.266q-.078 1.953-1.266 3.547-.031.938-.078 2.016t-.078 1.859v.469q-.047.578-.047 1.141t.047 1.109q.094 1.094.156 1.5.094 0 .219.031t.219.031q.469.063 1.031.25t.75.813q.094.281.047.563t-.234.5q-.313.438-.906.625t-.938.188h-.031q-.5 0-1.188-.094t-1-.594q-.25-.406-.594-1.047t-.531-1.047q-.281-.531-.406-1.078t-.156-1.172q-.016-.172-.016-.563v-.453q.016-.766.016-2.047l-.469.203q-.25.109-.5.203h-.063l-.156.078-.188.109q.047.25.047.531 0 .766-.344 1.641-.453 1.172-.953 1.797-.313.344-1.172.5t-1.516.25h.031q.406.125 1.172.469t1.078.406q.25.031.453.063t.359.031q.531.094.859.516t.359.859q.031.375-.172.672t-.578.422q-.344.094-.766.172t-.797.078q-.594 0-1.016-.156t-.641-.469q-.344-.094-1.203-.297t-2.141-.484l-.375.063-.344.031q-.469 0-.813-.156t-.531-.438q-.031-.031-.063-.078t-.031-.078q-.5.375-1 .641t-1.063.484q-.25.094-.531.141t-.594.047q-.75 0-1.438-.281t-1.094-.75q-.25-.313-.5-1.078z"
    />
    <path
      className="symbolOutline"
      d="M2.969 29.047q-.063-.203-.063-.438 0-.641.5-1.484.125-.188.391-.344t.609-.156q.125 0 .266.031t.266.094q.5.25.531.766t-.156.766q-.25.313 0 .516t.594.203q.094 0 .203-.031t.203-.063q.656-.344 1.172-.625t1.109-.906q-.344-1.063-.344-2.719v-.281q.031-1.844 1.438-4 1.813-2.781 4.75-5.953t3.75-3.953q.063-.219.125-.453t.125-.453q.281-.969.5-1.906t.219-1.563q0-.906.203-2.141t.359-2.141l.125-.672q.062-.328.063-.391 0-.375.266-.625t.609-.25q.125 0 .422.125t.516.688q.063.125.125.344t.125.5q.094.375.375 1.234t.563.891h.031q.906.156 1.453.422t.984.516q.219.156.422.266t.422.203q.688.25 2 .563t1.344.313l.313.063-.031.313q0 .031-.063.828t-.219 1.359q-.156.688-1.125.922t-2 .328q-.094 0-.172.016t-.141.016q-.844.094-1.219.297t-.688.859l-.094.188q-.25.594-.328.813t-.172.688q1.016 1.656 1.016 3.469v.266q-.078 1.953-1.266 3.547-.031.938-.078 2.016t-.078 1.859v.469q-.047.578-.047 1.141t.047 1.109q.094 1.094.156 1.5.094 0 .219.031t.219.031q.469.063 1.031.25t.75.813q.094.281.047.563t-.234.5q-.313.438-.906.625t-.938.188h-.031q-.5 0-1.188-.094t-1-.594q-.25-.406-.594-1.047t-.531-1.047q-.281-.531-.406-1.078t-.156-1.172q-.016-.172-.016-.563v-.453q.016-.766.016-2.047l-.469.203q-.25.109-.5.203h-.063l-.156.078-.188.078v.031q.047.25.047.531 0 .766-.344 1.641-.453 1.172-.953 1.797-.313.344-1.172.5t-1.516.25h.031q.406.125 1.172.469t1.078.406q.25.031.453.063t.359.031q.531.094.859.516t.359.859q.031.375-.172.672t-.578.422q-.344.094-.766.172t-.797.078q-.594 0-1.016-.156t-.641-.469q-.344-.094-1.203-.297t-2.141-.484l-.375.063-.344.031q-.469 0-.813-.156t-.531-.438q-.031-.031-.063-.078t-.031-.078q-.5.375-1 .641t-1.063.484q-.25.094-.531.141t-.594.047q-.75 0-1.438-.281t-1.094-.75q-.25-.313-.5-1.078zm.75-.109q.031.25.141.422t.172.266q.313.375.844.578t1.125.203q.25 0 .453-.031t.391-.094q.625-.25 1.063-.484t.813-.547l.75-.594.406.875v.063q.094.125.281.188t.469.063q.125 0 .266-.016t.266-.047l.188-.063.156.063q.906.188 1.922.422t1.484.359l.219.063.156.188q.094.156.375.25t.688.094q.313 0 .672-.063t.672-.156q.125-.031.172-.125t.047-.219q0-.156-.156-.375t-.438-.281q-.156-.031-.359-.063t-.422-.063q-.25-.031-.578-.156t-.828-.344q-.219-.094-.469-.188t-.438-.156h-.094q-.281-.031-.484-.25t-.203-.5.203-.5.484-.25h.156q1.313-.156 1.734-.313t.453-.188q.219-.281.438-.688t.375-.844q.188-.531.25-1t0-.813l-.063-.469q-.125-.469-.297-.766t-.609-.797q-.094-.125-.078-.281t.109-.25q.125-.094.281-.094t.25.125q.438.531.656.859t.344.766q.063-.031.109-.047t.109-.047l.063-.031q.281-.094.5-.188l1.531-.656-.031 1.156q-.016 1.063-.016 1.703v.531q.016.641.016.797.031.531.141 1.016t.328.922q.188.375.531 1.016t.563 1.016q.063.094.188.156t.344.094q.25.063.531.078t.5.016h.031q.25 0 .656-.125t.594-.375q.063-.094.078-.188t-.016-.219q-.031-.094-.094-.188t-.25-.156q-.188-.094-.406-.125t-.406-.063-.313-.047-.219-.047l-.438-.156-.094-.406q-.094-.438-.188-1.578-.047-.578-.047-1.164t.047-1.195l.031-.469q0-.781.047-1.859t.078-1.984v-.25l.156-.188q.5-.688.797-1.5t.328-1.656v-.203q0-.734-.203-1.484-.234-.844-.703-1.625l-.156-.219.063-.281q.094-.531.188-.797t.375-.891l.094-.188v-.031q.156-.313.375-.625t.594-.531q.281-.188.656-.266t.844-.141h.172l.141-.031q.5-.031.984-.109t.891-.172q.25-.094.422-.188t.203-.188q.094-.344.156-.859t.094-.891q-.531-.125-1.547-.375t-1.609-.469q-.25-.094-.484-.234t-.484-.266q-.375-.25-.859-.484t-1.297-.359q-.25-.031-.469-.188t-.375-.469q-.094-.125-.172-.313t-.141-.406q-.156-.375-.25-.75t-.156-.563q-.063-.219-.125-.422t-.094-.297l-.031-.031V.934Q20.94.778 20.878.7t-.094-.078-.078.031-.047.094q0 .125-.047.375t-.141.844q-.188.875-.375 2.063t-.188 2.063q0 .688-.234 1.672t-.516 2.016q-.031.188-.094.422t-.125.453l-.063.219-.156.125q-.813.813-3.719 3.922t-4.656 5.859h-.031q-1.25 1.938-1.313 3.594-.016.25-.016.5 0 1.328.297 2.25l.156.406-.313.344q-.531.594-1.016.891t-1.016.578l-.219.109-.188.109q-.188.094-.375.141t-.406.047q-.438 0-.813-.203t-.531-.547q-.125-.281-.094-.594t.25-.563q0-.031.016-.125t-.016-.156l-.047-.094-.078-.031q-.031-.031-.094-.047t-.094-.016q-.125 0-.234.063t-.109.094q-.25.375-.328.719-.047.188-.047.375 0 .156.031.313z"
    />
  </svg>