<svg width="32" height="32" viewBox="0 0 32 32">
    <path
      className="symbolFill"
      d="M.625 21.625q0-1.25.313-2.453t.875-2.266l8.594-12.719 8.594 12.719q.563 1.063.875 2.266t.313 2.453q0 4.094-2.875 7t-6.906 2.906-6.906-2.906-2.875-7zm15.938-11q.063-.156.156-.328t.156-.328l6.063-8.875 6.031 8.875q.375.719.594 1.547t.219 1.703q0 2.844-2.016 4.875t-4.828 2.031q-.344 0-.688-.031T21.594 20q-.156-1-.484-1.953t-.797-1.828z"
    />
    <path
      className="symbolOutline"
      d="M.625 21.625q0-1.25.313-2.453t.875-2.266l8.594-12.719 8.594 12.719q.563 1.063.875 2.266t.313 2.453q0 4.094-2.875 7t-6.906 2.906-6.906-2.906-2.875-7zm1.094 0q0 .906.172 1.766t.516 1.672q.313.781.781 1.484t1.094 1.328q.594.594 1.281 1.063t1.469.813 1.641.516 1.734.172 1.719-.172 1.656-.516q.75-.344 1.453-.813t1.297-1.063q.594-.625 1.063-1.328t.813-1.484q.344-.813.516-1.672t.172-1.766q0-.563-.078-1.109t-.203-1.078q-.125-.5-.313-1t-.438-.969L10.408 6.156 2.752 17.5q-.25.438-.438.938t-.313 1q-.156.531-.219 1.078t-.063 1.109zm14.844-11q.063-.156.156-.328t.156-.328l6.063-8.875 6.031 8.875q.375.719.594 1.547t.219 1.703q0 2.844-2.016 4.875t-4.828 2.031q-.344 0-.688-.031T21.594 20q-.156-1-.484-1.953t-.797-1.828zm1.25-.094l3.406 5.094.031.031.031.063q.438.781.734 1.609T22.499 19q.125.031.219.031h.219q1.125 0 2.188-.438T27 17.343q.813-.844 1.25-1.906t.438-2.219q0-.688-.172-1.391t-.484-1.297l-5.094-7.5z"
    />
  </svg>