<svg width="32" height="32" viewBox="0 0 32 32">
    <path
      className="symbolFill"
      d="M-.281 5.859Q-.25 5.312 0 4.75t.672-.953.984-.578q.094-.031.219-.063t.281-.063q.125-.031.25-.047t.219-.016q.469 0 .891.125t.797.406q.406.25.672.609t.422.828l8.406 23.125q.156.484.156.969v.156q-.031.563-.281 1.094t-.656.906-.969.594q-.094.031-.219.063t-.281.063q-.125.031-.266.047t-.234.016q-.438 0-.859-.141t-.797-.391-.656-.609-.438-.797L-.093 6.968q-.188-.5-.188-.969v-.141zm6.25-3.296l.391-.203 1.141-.578q.781-.406 1.797-.609T11.532.97q.813 0 1.672.141t1.766.422q.938.281 1.891.781t1.953 1.219q.625.406 1.266.734t1.328.547q.688.188 1.422.297t1.484.109q.781 0 1.641-.109t1.797-.328q.906-.219 1.906-.531t2.063-.719q0 1.344-.641 2.922t-1.891 3.328q-1.25 1.781-2.844 2.672t-3.5.891q-.125 0-.281-.016t-.313-.016q-.188-.031-.359-.047t-.328-.047q-.281-.063-.547-.109t-.547-.078q-.281 0-.531-.016t-.469-.016q-1.781 0-3.219.375t-2.531 1.125-1.656 1.125l-.563.375z"
    />
    <path
      className="symbolOutline"
      d="M-.281 5.859Q-.25 5.312 0 4.75t.672-.953.984-.578q.094-.031.219-.063t.281-.063q.125-.031.25-.047t.219-.016q.469 0 .891.125t.797.406q.406.25.672.609t.422.828l8.406 23.125q.156.484.156.969v.156q-.031.563-.281 1.094t-.656.906-.969.594q-.094.031-.219.063t-.281.063q-.125.031-.266.047t-.234.016q-.438 0-.859-.141t-.797-.391-.656-.609-.438-.797L-.093 6.968q-.188-.5-.188-.969v-.141zm1.14.11q0 .281.109.594v.031l8.406 23.125q.094.281.266.484t.391.359q.25.188.5.266t.531.078h.109l.172-.031.188-.047.156-.047q.344-.125.578-.359t.422-.547q.156-.344.172-.688t-.109-.688L4.344 5.374v-.031q-.094-.281-.25-.484t-.406-.391q-.25-.156-.516-.234t-.547-.078h-.109l-.141.031q-.094 0-.188.031t-.156.063q-.344.125-.594.359t-.406.578q-.172.375-.172.75zm5.11-3.406l.391-.203 1.141-.578q.781-.406 1.797-.609T11.532.97q.813 0 1.672.141t1.766.422q.938.281 1.891.781t1.953 1.219q.625.406 1.266.734t1.328.547q.688.188 1.422.297t1.484.109q.781 0 1.641-.109t1.797-.328q.906-.219 1.906-.531t2.063-.719q0 1.344-.641 2.922t-1.891 3.328q-1.25 1.781-2.844 2.672t-3.5.891q-.125 0-.281-.016t-.313-.016q-.188-.031-.359-.047t-.328-.047q-.281-.063-.547-.109t-.547-.078q-.281 0-.531-.016t-.469-.016q-1.781 0-3.219.375t-2.531 1.125-1.656 1.125l-.563.375zm1.437.531l4.625 11.188 1.031-.719q.625-.438 1.359-.75t1.547-.531q.781-.188 1.672-.297t1.828-.109q.25 0 .516.016t.578.016q.313.031.609.078t.609.141l.594.063q.125 0 .25.016t.219.016q1.625 0 2.984-.766t2.453-2.328q.75-1.063 1.266-2.047t.797-1.859q-.625.188-1.203.359t-1.141.297q-1 .25-1.922.359t-1.766.109-1.656-.109-1.594-.359q-.75-.219-1.484-.594t-1.422-.844q-.906-.656-1.797-1.125t-1.703-.719q-.844-.25-1.625-.375t-1.5-.125q-1.094 0-1.984.172t-1.516.516z"
    />
  </svg>