<svg width="32" height="32" viewBox="0 0 32 32">
    <path
      className="symbolFill"
      d="M6.125 10.031q0-3.906 2.906-6.688T16 .562t6.969 2.781 2.906 6.688q0 1.969-.797 3.719t-2.172 3.031q-.344.563-.734 1.234t-.578 1.141q-.313.844-.297 1.125l.016.281q-.063.844-.688 1.438t-1.469.594h-6.25q-.813 0-1.453-.594t-.672-1.438v-.281l-.281-1.125q-.156-.438-.516-1.031T9.281 17q-1.438-1.313-2.297-3.109t-.859-3.859zm5.5 16.563q0-.781.563-1.344t1.344-.563h4.938q.781 0 1.344.563t.563 1.344q0 .313-.094.594t-.281.531q.188.219.281.5t.094.594q0 .781-.563 1.344t-1.344.563h-.313l-.375 1.219h-3.563l-.375-1.219h-.313q-.781 0-1.344-.547t-.563-1.359q0-.281.094-.578t.281-.516q-.188-.25-.281-.531t-.094-.594z"
    />
    <path
      className="symbolOutline"
      d="M6.125 10.031q0-3.906 2.906-6.688T16 .562t6.969 2.781 2.906 6.688q0 1.969-.797 3.719t-2.172 3.031q-.344.563-.734 1.234t-.578 1.141q-.313.844-.297 1.125l.016.281q-.063.844-.688 1.438t-1.469.594h-6.25q-.813 0-1.453-.594t-.672-1.438v-.281l-.281-1.125q-.156-.438-.516-1.031T9.281 17q-1.438-1.313-2.297-3.109t-.859-3.859zm1.188 0q0 .875.188 1.719t.563 1.625q.344.781.859 1.469t1.172 1.25l.125.125.063.125q.531.781.859 1.391t.453 1.047q.219.563.313 1.016t.063.797q.063.344.328.578t.609.234h6.25q.344 0 .609-.25t.359-.594q-.031-.313.063-.766t.281-1.016q.156-.469.531-1.125t.938-1.5l.063-.125.094-.094q.625-.594 1.094-1.25t.813-1.406q.344-.781.516-1.594t.172-1.656-.172-1.641-.516-1.578q-.313-.719-.781-1.391t-1.063-1.234-1.297-1.016-1.453-.766q-.813-.313-1.672-.484t-1.734-.172-1.734.172-1.672.484q-.75.313-1.453.766T9.847 4.187 8.784 5.421t-.781 1.391q-.344.781-.516 1.578t-.172 1.641zm4.312 16.563q0-.781.563-1.344t1.344-.563h4.938q.781 0 1.344.563t.563 1.344q0 .313-.094.594t-.281.531q.188.219.281.5t.094.594q0 .781-.563 1.344t-1.344.563h-.313l-.375 1.219h-3.563l-.375-1.219h-.313q-.781 0-1.344-.547t-.563-1.359q0-.281.094-.578t.281-.516q-.188-.25-.281-.531t-.094-.594zm1.188 0q0 .156.047.266t.078.172l.5.688-.5.688q-.031.063-.078.172t-.047.234q0 .313.219.516t.5.203h1.188l.281.844.094.375h1.813l.094-.375.281-.844h1.188q.281 0 .5-.203t.219-.516q0-.125-.047-.234t-.078-.172l-.5-.688.5-.688q.031-.063.078-.172t.047-.266q0-.281-.219-.5t-.5-.219h-4.938q-.281 0-.5.219t-.219.5z"
    />
  </svg>