<svg width="32" height="32" viewBox="0 0 32 32">
    <path
      className="symbolFill"
      d="M.406 21.25v-6.563q0-5.781 4.125-9.906T14.469.656h3q5.813 0 9.938 4.125t4.125 9.906v6.563q0 2.938-2 5.078t-4.844 2.391q-.156 1.281-1.125 2.156t-2.281.875q-.813 0-1.5-.344t-1.156-.906q-.469.563-1.156.906t-1.5.344-1.5-.344-1.156-.906q-.469.563-1.156.906t-1.5.344q-1.313 0-2.281-.875t-1.125-2.156q-2.844-.25-4.844-2.391t-2-5.078zm6.094-2q0 1.406 1 2.406t2.406 1 2.406-1 1-2.406-1-2.406-2.406-1-2.406 1-1 2.406zm12.125 0q0 1.406 1 2.406t2.406 1 2.422-1 1.016-2.406-1.016-2.406-2.422-1-2.406 1-1 2.406z"
    />
    <path
      className="symbolOutline"
      d="M.406 21.25v-6.563q0-5.781 4.125-9.906T14.469.656h3q5.813 0 9.938 4.125t4.125 9.906v6.563q0 2.938-2 5.078t-4.844 2.391q-.156 1.281-1.125 2.156t-2.281.875q-.813 0-1.5-.344t-1.156-.906q-.469.563-1.156.906t-1.5.344-1.5-.344-1.156-.906q-.469.563-1.156.906t-1.5.344q-1.313 0-2.281-.875t-1.125-2.156q-2.844-.25-4.844-2.391t-2-5.078zm1.157 0q0 1.188.438 2.313t1.25 1.969q.813.875 1.875 1.406t2.219.625l.969.063.094.969q.063.406.25.781t.5.656q.281.281.688.422t.813.141q.5 0 .969-.219t.781-.594l.906-1.125.906 1.125q.313.375.781.594t.969.219.969-.219.781-.594l.906-1.125.906 1.125q.313.375.781.594t.969.219q.406 0 .813-.141t.719-.422q.281-.281.484-.656t.234-.781l.094-.969.969-.063q1.156-.094 2.219-.625t1.875-1.406q.813-.844 1.25-1.969t.438-2.313v-6.563q0-1.281-.266-2.547t-.766-2.453q-.469-1.156-1.172-2.188t-1.578-1.906q-.875-.906-1.906-1.594t-2.188-1.188q-1.188-.5-2.453-.75t-2.578-.25h-3q-1.313 0-2.578.25t-2.453.75q-1.125.5-2.172 1.188T5.346 5.593q-.875.875-1.578 1.906T2.596 9.687q-.5 1.188-.766 2.453t-.266 2.547v6.563zm3.781-2q0-.469.078-.922t.266-.859.422-.781.547-.688.688-.547.781-.422.859-.266.922-.078.906.078.875.266q.406.188.766.422t.672.547.563.688.438.781q.156.406.25.859t.094.922-.094.906-.25.875q-.188.406-.438.766t-.563.672-.672.563-.766.438q-.438.156-.875.25t-.906.094-.922-.094-.859-.25q-.406-.188-.781-.438t-.688-.563-.547-.672-.422-.766q-.188-.438-.266-.875t-.078-.906zm1.156 0q0 1.406 1 2.406t2.406 1 2.406-1 1-2.406-1-2.406-2.406-1-2.406 1-1 2.406zm10.969 0q0-.469.094-.922t.281-.859q.156-.406.406-.781t.563-.688.672-.547.766-.422q.438-.188.891-.266t.891-.078q.469 0 .922.078t.859.266.781.422.688.547.563.688.406.781q.188.406.281.859t.094.922-.094.906-.281.875q-.156.406-.406.766t-.563.672-.688.563-.781.438q-.406.156-.859.25t-.922.094q-.438 0-.891-.094t-.891-.25q-.406-.188-.766-.438t-.672-.563-.563-.672-.406-.766q-.188-.438-.281-.875t-.094-.906zm1.156 0q0 1.406 1 2.406t2.406 1 2.422-1 1.016-2.406-1.016-2.406-2.422-1-2.406 1-1 2.406z"
    />
  </svg>