<svg width="62" height="58" viewBox="0 0 62 58">
    <path
      className="symbolFill"
      d="M31 44.237L12.19 57.889l7.172-22.108L.566 22.111l23.241-.01L31 0l7.193 22.1 23.24.011-18.795 13.67 7.171 22.108z"
      fillRule="evenodd"
    />
    <path
      className="symbolOutline"
      d="M31 41.148l14.06 10.205-5.36-16.526 14.051-10.22-17.374-.008L31 8.08l-5.377 16.52-17.374.009L22.3 34.827l-5.36 16.526L31 41.148zm0 3.089L12.19 57.889l7.172-22.108L.566 22.111l23.241-.01L31 0l7.193 22.1 23.24.011-18.795 13.67 7.171 22.108L31 44.237z"
      fillRule="nonzero"
    />
  </svg>