 <svg style={{ maxHeight, maxWidth }} viewBox="0 0 32 32">
    <path
      className="symbolFill"
      d="M-.063 27.75q.031-.469.25-.953t.594-.984.906-.859 1.219-.547q.813-.313 1.578-.625t1.453-.594q.688-.313 1.328-.594t1.203-.531q.156-.063.313-.141t.313-.141q.188-.094.359-.203t.328-.203.297-.172.234-.141q.125-.094.234-.156t.172-.094v-.188q0-.188-.047-.531t-.109-.844h.844q-.156-.219-.297-.484t-.266-.547q-.094-.281-.172-.594t-.141-.656q-.25-.188-.438-.406t-.344-.5q-.125-.281-.203-.625t-.109-.719v-.125l-.031-.156q0-.094-.031-.188t-.063-.219q-.094-.406-.125-.75t0-.656.125-.594.25-.5l-.375-1.125q-.063-.375-.109-.797t-.109-.859q-.016-.172-.016-.375 0-.297.031-.672.047-.609.141-1.359.063-.375.141-.703t.172-.609q.125-.313.25-.547t.281-.422.328-.344.328-.281q.188-.125.406-.188t.438-.094q.25-.438.703-.75t1.078-.531q.656-.219 1.344-.313t1.375-.094q.563 0 1.109.063t1.047.219q.531.125 1.016.328t.953.484.859.656.672.875q.313.5.516 1.078t.266 1.234q.094.625.141 1.219t.047 1.156q.016.375.016.75v.375q-.016.563-.078 1.094l.188.188.031.063q.219.281.328.625t.109.781-.094.938-.281 1.094q-.094.375-.219.719t-.281.625-.359.484-.422.359q-.031.375-.094.734t-.188.672q-.094.281-.219.547t-.313.484l.484.078q.296.047.703.109 0 .156-.047.453t-.141.766q0 .031-.016.125t-.047.219q.313.156.594.313t.563.281q.281.094.547.188t.516.188q.719.188 1.391.391t1.266.422q.625.219 1.172.453t1.047.484q.719.313 1.266.672t.891.734q.375.375.578.766t.203.797q.094.5.141.984t.078.953q.063.5.078 1.016t.016 1.016v1.219H-.062V27.75z"
    />
    <path
      className="symbolOutline"
      d="M-.063 27.75q.031-.469.25-.953t.594-.984.906-.859 1.219-.547q.813-.313 1.578-.625t1.453-.594q.688-.313 1.328-.594t1.203-.531q.156-.063.313-.141t.313-.141q.188-.094.359-.203t.328-.203.297-.172.234-.141q.125-.094.234-.156t.172-.094v-.188q0-.188-.047-.531t-.109-.844h.844q-.156-.219-.297-.484t-.266-.547q-.094-.281-.172-.594t-.141-.656q-.25-.188-.438-.406t-.344-.5q-.125-.281-.203-.625t-.109-.719v-.125l-.031-.156q0-.094-.031-.188t-.063-.219q-.094-.406-.125-.75t0-.656.125-.594.25-.5l-.375-1.125q-.063-.375-.109-.797t-.109-.859q-.016-.172-.016-.375 0-.297.031-.672.047-.609.141-1.359.063-.375.141-.703t.172-.609q.125-.313.25-.547t.281-.422.328-.344.328-.281q.188-.125.406-.188t.438-.094q.25-.438.703-.75t1.078-.531q.656-.219 1.344-.313t1.375-.094q.563 0 1.109.063t1.047.219q.531.125 1.016.328t.953.484.859.656.672.875q.313.5.516 1.078t.266 1.234q.094.625.141 1.219t.047 1.156q.016.375.016.75v.375q-.016.563-.078 1.094l.188.188.031.063q.219.281.328.625t.109.781-.094.938-.281 1.094q-.094.375-.219.719t-.281.625-.359.484-.422.359q-.031.375-.094.734t-.188.672q-.094.281-.219.547t-.313.484l.484.078q.296.047.703.109 0 .156-.047.453t-.141.766q0 .031-.016.125t-.047.219q.313.156.594.313t.563.281q.281.094.547.188t.516.188q.719.188 1.391.391t1.266.422q.625.219 1.172.453t1.047.484q.719.313 1.266.672t.891.734q.375.375.578.766t.203.797q.094.5.141.984t.078.953q.063.5.078 1.016t.016 1.016v1.219H-.062V27.75zm1.219.125v2.844h29.625q0-.531-.016-1.031t-.047-1q-.031-.469-.094-.922t-.156-.891q0-.438-.516-.922t-1.578-.984q-1.031-.5-2.234-.938t-2.578-.813q-.219-.063-.453-.141t-.484-.172l-.438-.188-.406-.188q-.156-.094-.328-.188t-.328-.188q-.125-.094-.234-.172t-.172-.109q-.031-.031-.078-.047t-.109-.047q-.031-.031-.063-.125t-.031-.25.016-.297.016-.297q.031-.063.031-.125v-.156q-.125-.031-.406-.078t-.719-.109q0-.188-.031-.547t-.094-.891q.281-.094.5-.328t.344-.609.188-.734.063-.672v-.625q.031 0 .063.016t.063.016.063.016l.031.016q.156 0 .297-.109t.266-.328q.156-.219.25-.422t.125-.391q.031-.063.063-.156t.063-.219q.125-.375.188-.688t.094-.563q.031-.281.031-.469t-.031-.313-.078-.234-.141-.172q-.063-.094-.125-.141t-.125-.047q-.031-.031-.063-.031h-.188q.094-.469.141-1.031t.047-1.219-.016-1.172-.078-.922q0-.156-.031-.359t-.063-.453q-.063-.688-.313-1.266t-.688-1.016q-.406-.469-.875-.781t-1-.469q-.281-.094-.563-.172t-.563-.109-.594-.047-.625-.016q-.563 0-1.031.047t-.875.141-.719.25-.563.375q-.125.125-.203.234t-.109.234 0 .234.094.234q-.063-.031-.141-.047t-.141-.016q-.063-.031-.141-.031h-.172q-.375 0-.656.156t-.5.469q-.188.281-.313.641t-.188.797l-.063.844q-.032.438-.031.875.031.438.047.797t.047.672q.031.094.047.234t.047.359q.063.219.203.641t.359 1.047q-.25.156-.391.344t-.203.406q-.031.219 0 .484t.125.578l.063.313.063.281.047.219.016.188q.031.313.078.547t.141.422q.094.156.234.25t.328.094q.031-.031.078-.031h.109q.031.344.063.672t.094.641q.094.281.172.5t.172.375.172.281.172.219q.125.094.203.156t.141.094q.031 0 .063.016t.063.047q.063.313.078.563t.016.438v.438l-.063.063H11.94q.031.094.031.219t-.031.281q0 .125-.016.25t-.047.219v.078l-.031.109q-.313.125-.672.328t-.766.453q-.375.219-.734.422t-.672.359q-.563.25-1.188.531t-1.344.594l-1.266.516q-.578.235-1.016.422-.125.031-.344.109t-.531.203q-.281.094-.516.203t-.453.266-.375.313-.25.281-.188.281-.156.313-.109.281-.047.188q0 .031-.016.063l-.016.031v.063l-.031.031z"
    />
  </svg>